<svg width="220" height="220" viewBox="0 0 220 220" fill="none" xmlns="http://www.w3.org/2000/svg">
<path d="M112.909 8.72727L111.705 9.06818C111.629 8.86742 111.517 8.67235 111.369 8.48295C111.225 8.28977 111.028 8.13068 110.778 8.00568C110.528 7.88068 110.208 7.81818 109.818 7.81818C109.284 7.81818 108.839 7.94129 108.483 8.1875C108.131 8.42992 107.955 8.73864 107.955 9.11364C107.955 9.44697 108.076 9.71023 108.318 9.90341C108.561 10.0966 108.939 10.2576 109.455 10.3864L110.75 10.7045C111.53 10.8939 112.112 11.1837 112.494 11.5739C112.877 11.9602 113.068 12.4583 113.068 13.0682C113.068 13.5682 112.924 14.0152 112.636 14.4091C112.352 14.803 111.955 15.1136 111.443 15.3409C110.932 15.5682 110.337 15.6818 109.659 15.6818C108.769 15.6818 108.032 15.4886 107.449 15.1023C106.866 14.7159 106.496 14.1515 106.341 13.4091L107.614 13.0909C107.735 13.5606 107.964 13.9129 108.301 14.1477C108.642 14.3826 109.087 14.5 109.636 14.5C110.261 14.5 110.758 14.3674 111.125 14.1023C111.496 13.8333 111.682 13.5114 111.682 13.1364C111.682 12.8333 111.576 12.5795 111.364 12.375C111.152 12.1667 110.826 12.0114 110.386 11.9091L108.932 11.5682C108.133 11.3788 107.545 11.0852 107.17 10.6875C106.799 10.286 106.614 9.78409 106.614 9.18182C106.614 8.68939 106.752 8.25379 107.028 7.875C107.309 7.49621 107.689 7.19886 108.17 6.98295C108.655 6.76705 109.205 6.65909 109.818 6.65909C110.682 6.65909 111.36 6.84848 111.852 7.22727C112.348 7.60606 112.701 8.10606 112.909 8.72727Z" fill="black"/>
<path d="M119.237 16.1348C118.423 16.057 117.74 15.7978 117.188 15.357C116.637 14.9162 116.235 14.3432 115.982 13.638C115.73 12.9328 115.645 12.1466 115.728 11.2793C115.812 10.3969 116.049 9.63377 116.438 8.98978C116.83 8.34237 117.337 7.85615 117.958 7.53112C118.583 7.20267 119.288 7.0759 120.072 7.15079C120.683 7.20912 121.223 7.37481 121.691 7.64786C122.16 7.92091 122.531 8.276 122.805 8.71312C123.079 9.15025 123.228 9.6439 123.252 10.1941L121.917 10.0666C121.853 9.66098 121.66 9.2887 121.339 8.94978C121.021 8.60746 120.568 8.40821 119.98 8.35204C119.46 8.30235 118.991 8.39453 118.573 8.62858C118.159 8.85921 117.819 9.20918 117.553 9.6785C117.292 10.1444 117.13 10.7054 117.067 11.3615C117.003 12.0327 117.053 12.6272 117.217 13.1451C117.384 13.6634 117.649 14.0787 118.011 14.3911C118.377 14.7038 118.824 14.8853 119.352 14.9357C119.698 14.9689 120.019 14.9386 120.313 14.8449C120.608 14.7513 120.864 14.6007 121.081 14.3932C121.299 14.1856 121.464 13.9275 121.578 13.6187L122.913 13.7461C122.788 14.2517 122.557 14.6958 122.22 15.0784C121.887 15.4575 121.466 15.7446 120.957 15.9394C120.451 16.1309 119.878 16.196 119.237 16.1348Z" fill="black"/>
<path d="M126.144 16.8723L127.795 8.30269L129.067 8.54786L128.818 9.84222L128.907 9.85942C129.145 9.46552 129.494 9.17595 129.954 8.99072C130.414 8.8055 130.901 8.76235 131.414 8.86128C131.511 8.87992 131.631 8.90507 131.776 8.93675C131.92 8.96843 132.029 8.99516 132.102 9.01693L131.843 10.3559C131.801 10.3362 131.702 10.2997 131.546 10.2466C131.395 10.1904 131.232 10.1455 131.057 10.1118C130.641 10.0315 130.252 10.0472 129.891 10.159C129.534 10.2677 129.232 10.4563 128.983 10.7247C128.739 10.9901 128.58 11.3163 128.505 11.7031L127.46 17.126L126.144 16.8723Z" fill="black"/>
<path d="M136.354 19.4383C135.598 19.2164 134.988 18.8417 134.523 18.3143C134.062 17.7881 133.766 17.1545 133.636 16.4137C133.51 15.6739 133.574 14.8715 133.828 14.0065C134.084 13.1342 134.466 12.4192 134.973 11.8615C135.484 11.3049 136.075 10.9299 136.748 10.7365C137.424 10.5443 138.14 10.5591 138.896 10.7811C139.652 11.0031 140.261 11.3772 140.722 11.9035C141.187 12.4308 141.482 13.0662 141.608 13.8096C141.736 14.5541 141.673 15.3625 141.417 16.2347C141.163 17.0997 140.781 17.8087 140.271 18.3618C139.765 18.9159 139.174 19.289 138.497 19.4813C137.825 19.6746 137.11 19.6603 136.354 19.4383ZM136.694 18.2826C137.268 18.4512 137.784 18.4427 138.241 18.2572C138.698 18.0717 139.086 17.7652 139.405 17.3377C139.724 16.9102 139.966 16.4167 140.13 15.857C140.294 15.2973 140.358 14.7496 140.322 14.2139C140.286 13.6782 140.126 13.207 139.843 12.8001C139.56 12.3932 139.131 12.1055 138.557 11.9368C137.983 11.7682 137.467 11.7785 137.008 11.9677C136.55 12.1569 136.161 12.467 135.841 12.8981C135.521 13.3292 135.279 13.8246 135.114 14.3843C134.95 14.944 134.887 15.4898 134.924 16.0219C134.961 16.5539 135.122 17.0216 135.406 17.4248C135.69 17.828 136.12 18.114 136.694 18.2826Z" fill="black"/>
<path d="M149.974 11.6776L145.65 22.4804L144.405 21.982L148.73 11.1792L149.974 11.6776Z" fill="black"/>
<path d="M159.14 15.9226L153.807 26.2654L152.616 25.651L157.948 15.3082L159.14 15.9226Z" fill="black"/>
<path d="M167.929 35.5659C167.357 35.1163 166.966 34.575 166.755 33.942C166.547 33.306 166.528 32.6258 166.697 31.9015C166.869 31.1742 167.241 30.4473 167.812 29.7208C168.379 29.0002 168.994 28.4721 169.658 28.1365C170.322 27.8008 170.988 27.6619 171.656 27.7196C172.324 27.7773 172.946 28.0333 173.524 28.4876C173.97 28.8388 174.265 29.1907 174.407 29.5433C174.554 29.8952 174.622 30.2189 174.612 30.5142C174.607 30.8088 174.596 31.0461 174.58 31.2261L174.669 31.2964L177.324 27.9199L178.378 28.7488L171.185 37.8956L170.167 37.0948L170.996 36.0408L170.871 35.9424C170.695 36.0066 170.461 36.0778 170.168 36.1559C169.877 36.2311 169.541 36.239 169.159 36.1794C168.779 36.1169 168.369 35.9124 167.929 35.5659ZM168.816 34.7314C169.239 35.0639 169.683 35.2347 170.148 35.2439C170.615 35.25 171.079 35.1163 171.54 34.8427C172.004 34.5661 172.439 34.1688 172.846 33.6507C173.249 33.1386 173.527 32.6319 173.68 32.1308C173.836 31.6266 173.852 31.1526 173.729 30.7088C173.608 30.2619 173.333 29.8699 172.904 29.5328C172.458 29.1815 171.995 29.0035 171.517 28.9986C171.045 28.9931 170.58 29.1268 170.125 29.3998C169.675 29.6721 169.26 30.0495 168.88 30.5318C168.496 31.0201 168.222 31.5223 168.057 32.0383C167.897 32.5538 167.873 33.045 167.982 33.512C168.097 33.9784 168.375 34.3849 168.816 34.7314Z" fill="black"/>
<path d="M174.923 41.5819C174.352 41.0382 173.981 40.4254 173.81 39.7436C173.641 39.0645 173.668 38.3659 173.893 37.6479C174.119 36.9325 174.544 36.2486 175.166 35.5961C175.793 34.9382 176.46 34.4776 177.166 34.2143C177.876 33.9536 178.573 33.8914 179.26 34.0278C179.949 34.1668 180.579 34.5081 181.149 35.0518C181.719 35.5955 182.089 36.207 182.258 36.8861C182.429 37.5679 182.4 38.2679 182.171 38.986C181.944 39.7067 181.517 40.3961 180.89 41.054C180.268 41.7065 179.603 42.1617 178.897 42.4196C178.193 42.6802 177.497 42.741 176.808 42.602C176.121 42.4656 175.493 42.1256 174.923 41.5819ZM175.754 40.7101C176.187 41.1231 176.649 41.3519 177.141 41.3965C177.632 41.441 178.117 41.3464 178.597 41.1126C179.076 40.8788 179.517 40.5509 179.919 40.1287C180.322 39.7065 180.63 39.2491 180.843 38.7564C181.057 38.2637 181.131 37.7716 181.065 37.2802C181 36.7888 180.751 36.3366 180.318 35.9236C179.885 35.5106 179.421 35.2832 178.927 35.2414C178.433 35.1995 177.945 35.2969 177.463 35.5334C176.981 35.7699 176.539 36.0993 176.136 36.5215C175.734 36.9436 175.427 37.3997 175.216 37.8897C175.006 38.3796 174.934 38.8689 175.002 39.3576C175.07 39.8463 175.321 40.2971 175.754 40.7101Z" fill="black"/>
<path d="M179.26 45.6251L184.115 37.9004L185.037 38.9653L181.223 44.7666L181.282 44.8353L187.553 41.8681L188.49 42.9502L184.663 48.7022L184.723 48.7709L190.991 45.8357L191.913 46.9007L183.576 50.6062L182.713 49.61L186.53 43.7767L186.441 43.6736L180.124 46.6213L179.26 45.6251Z" fill="black"/>
<path d="M189.843 50.1584L185.567 53.2037L184.789 52.1114L191.898 47.0491L192.65 48.1044L191.539 48.8954L191.605 48.9879C192.084 48.8975 192.555 48.944 193.015 49.1274C193.479 49.3086 193.902 49.6676 194.285 50.2045C194.627 50.6858 194.828 51.1773 194.888 51.6789C194.951 52.1784 194.854 52.6701 194.599 53.1541C194.347 53.6359 193.919 54.0921 193.314 54.5227L188.797 57.7394L188.019 56.6472L192.462 53.4832C193.021 53.0855 193.352 52.6307 193.457 52.1187C193.566 51.6046 193.44 51.0945 193.079 50.5885C192.831 50.2398 192.533 49.982 192.187 49.8151C191.842 49.6512 191.469 49.5939 191.067 49.643C190.665 49.6922 190.257 49.864 189.843 50.1584Z" fill="black"/>
<path d="M199.159 61.883L198.262 61.0103C198.398 60.8443 198.511 60.65 198.601 60.4273C198.696 60.2061 198.736 59.956 198.719 59.677C198.702 59.398 198.596 59.0895 198.401 58.7516C198.134 58.2891 197.805 57.9652 197.414 57.78C197.028 57.5961 196.672 57.5979 196.347 57.7854C196.059 57.9521 195.891 58.1887 195.845 58.4952C195.799 58.8017 195.849 59.2103 195.995 59.7208L196.367 61.0018C196.594 61.7723 196.633 62.4207 196.487 62.9471C196.343 63.4716 196.008 63.8863 195.48 64.1912C195.047 64.4412 194.587 64.54 194.102 64.4877C193.619 64.4386 193.151 64.2495 192.699 63.9203C192.246 63.5911 191.851 63.1329 191.512 62.5457C191.066 61.7748 190.865 61.0402 190.908 60.3418C190.951 59.6434 191.255 59.0414 191.821 58.5357L192.733 59.4788C192.386 59.8186 192.196 60.1932 192.161 60.6026C192.128 61.0153 192.249 61.4594 192.524 61.9351C192.836 62.4764 193.199 62.8398 193.612 63.0254C194.031 63.2124 194.403 63.2122 194.727 63.0247C194.99 62.8732 195.156 62.6544 195.228 62.3684C195.302 62.0806 195.274 61.7208 195.142 61.2892L194.71 59.859C194.475 59.0722 194.435 58.4169 194.592 57.8933C194.755 57.3711 195.096 56.9594 195.618 56.6582C196.044 56.412 196.491 56.314 196.957 56.364C197.425 56.4174 197.873 56.5984 198.301 56.907C198.73 57.219 199.098 57.6407 199.405 58.1721C199.837 58.92 200.012 59.6019 199.93 60.2178C199.85 60.8369 199.593 61.392 199.159 61.883Z" fill="black"/>
<path d="M195.908 71.0669C195.568 70.3227 195.451 69.6015 195.557 68.9035C195.663 68.2055 195.959 67.571 196.443 66.9999C196.928 66.4288 197.566 65.9623 198.359 65.6003C199.165 65.2321 199.944 65.0554 200.696 65.07C201.453 65.0865 202.128 65.2824 202.72 65.6575C203.317 66.0345 203.779 66.5814 204.106 67.298C204.361 67.8562 204.487 68.4065 204.485 68.9488C204.483 69.4912 204.361 69.9903 204.12 70.4462C203.878 70.9021 203.525 71.2779 203.06 71.5734L202.503 70.3536C202.823 70.0954 203.049 69.7423 203.181 69.2944C203.319 68.8484 203.265 68.3566 203.02 67.8191C202.803 67.3436 202.488 66.9834 202.077 66.7383C201.67 66.4951 201.197 66.3759 200.658 66.3806C200.123 66.3872 199.557 66.5274 198.957 66.8012C198.344 67.0813 197.854 67.4217 197.487 67.8223C197.122 68.2264 196.895 68.6634 196.805 69.1331C196.717 69.6063 196.784 70.0841 197.004 70.5665C197.149 70.8835 197.335 71.146 197.563 71.3541C197.792 71.5622 198.05 71.7086 198.339 71.7933C198.627 71.8781 198.934 71.8923 199.258 71.8359L199.815 73.0556C199.315 73.2007 198.815 73.2229 198.315 73.1222C197.82 73.0234 197.361 72.8021 196.937 72.4584C196.519 72.1165 196.176 71.6526 195.908 71.0669Z" fill="black"/>
<path d="M198.723 77.4168L206.97 74.5624L207.394 75.7866L206.148 76.2178L206.178 76.3037C206.638 76.3128 207.063 76.4702 207.454 76.776C207.844 77.0818 208.125 77.4817 208.296 77.9757C208.328 78.0687 208.366 78.1857 208.411 78.3265C208.456 78.4674 208.487 78.5748 208.505 78.6489L207.216 79.0949C207.212 79.0482 207.194 78.9442 207.162 78.7829C207.135 78.6239 207.093 78.4602 207.034 78.292C206.896 77.8911 206.688 77.5622 206.41 77.3055C206.138 77.051 205.823 76.8833 205.467 76.8024C205.115 76.7237 204.753 76.7489 204.38 76.8777L199.161 78.684L198.723 77.4168Z" fill="black"/>
<path d="M201.606 87.5428C201.42 86.7771 201.439 86.0611 201.664 85.3947C201.889 84.7321 202.29 84.1593 202.866 83.6764C203.444 83.1972 204.171 82.8513 205.047 82.6388C205.93 82.4245 206.74 82.3975 207.477 82.5579C208.214 82.722 208.835 83.0469 209.339 83.5328C209.843 84.0223 210.189 84.6499 210.374 85.4156C210.56 86.1812 210.54 86.8954 210.315 87.5581C210.091 88.2244 209.688 88.7976 209.107 89.2778C208.527 89.7615 207.795 90.1106 206.911 90.3249C206.035 90.5375 205.23 90.5612 204.497 90.3963C203.764 90.235 203.145 89.9096 202.64 89.42C202.136 88.9342 201.792 88.3084 201.606 87.5428ZM202.777 87.2588C202.918 87.8404 203.183 88.2828 203.572 88.5859C203.961 88.889 204.421 89.0719 204.95 89.1344C205.48 89.1969 206.028 89.1593 206.595 89.0218C207.162 88.8843 207.669 88.666 208.114 88.3668C208.56 88.0677 208.888 87.6937 209.099 87.245C209.31 86.7963 209.345 86.2812 209.204 85.6996C209.063 85.1179 208.796 84.676 208.403 84.3738C208.01 84.0715 207.547 83.8896 207.013 83.828C206.48 83.7664 205.93 83.8044 205.363 83.9419C204.796 84.0794 204.291 84.2973 203.849 84.5956C203.407 84.8938 203.083 85.2668 202.876 85.7147C202.668 86.1625 202.635 86.6772 202.777 87.2588Z" fill="black"/>
<path d="M215.137 95.4576L203.619 97.1136L203.428 95.7864L214.946 94.1303L215.137 95.4576Z" fill="black"/>
<path d="M216.043 105.517L204.42 106.071L204.356 104.732L215.979 104.178L216.043 105.517Z" fill="black"/>
<path d="M203.426 122.95C203.53 122.231 203.803 121.621 204.246 121.122C204.692 120.624 205.272 120.267 205.984 120.052C206.7 119.837 207.515 119.796 208.43 119.927C209.337 120.058 210.102 120.327 210.725 120.734C211.348 121.141 211.801 121.648 212.085 122.255C212.369 122.862 212.458 123.53 212.354 124.257C212.273 124.819 212.115 125.25 211.881 125.549C211.65 125.853 211.404 126.074 211.143 126.213C210.885 126.355 210.674 126.465 210.51 126.541L210.494 126.653L214.746 127.264L214.555 128.592L203.037 126.936L203.221 125.653L204.548 125.844L204.571 125.687C204.428 125.567 204.249 125.399 204.035 125.185C203.824 124.971 203.65 124.684 203.51 124.323C203.374 123.963 203.346 123.505 203.426 122.95ZM204.593 123.302C204.516 123.834 204.59 124.304 204.815 124.711C205.043 125.119 205.391 125.454 205.858 125.717C206.329 125.98 206.891 126.158 207.544 126.252C208.189 126.345 208.766 126.332 209.277 126.214C209.791 126.097 210.21 125.874 210.533 125.545C210.859 125.217 211.061 124.783 211.139 124.243C211.22 123.681 211.143 123.191 210.908 122.775C210.676 122.363 210.328 122.028 209.864 121.769C209.403 121.516 208.869 121.345 208.262 121.258C207.647 121.169 207.075 121.183 206.545 121.298C206.019 121.418 205.581 121.642 205.232 121.97C204.885 122.303 204.672 122.747 204.593 123.302Z" fill="black"/>
<path d="M201.713 132.015C201.899 131.25 202.244 130.622 202.749 130.133C203.252 129.647 203.871 129.321 204.605 129.156C205.338 128.995 206.142 129.021 207.019 129.233C207.902 129.448 208.634 129.795 209.216 130.275C209.796 130.759 210.199 131.332 210.424 131.995C210.648 132.661 210.667 133.377 210.481 134.143C210.296 134.908 209.951 135.534 209.447 136.02C208.943 136.509 208.322 136.834 207.585 136.995C206.848 137.159 206.037 137.134 205.154 136.919C204.278 136.707 203.551 136.359 202.975 135.876C202.397 135.397 201.996 134.824 201.772 134.158C201.547 133.495 201.527 132.781 201.713 132.015ZM202.884 132.299C202.743 132.881 202.776 133.396 202.983 133.844C203.19 134.291 203.514 134.664 203.957 134.963C204.399 135.261 204.903 135.479 205.47 135.616C206.037 135.754 206.587 135.792 207.12 135.73C207.654 135.669 208.117 135.487 208.51 135.184C208.903 134.882 209.17 134.44 209.311 133.859C209.452 133.277 209.417 132.762 209.206 132.313C208.996 131.865 208.667 131.491 208.222 131.191C207.776 130.892 207.269 130.674 206.702 130.536C206.136 130.399 205.587 130.361 205.058 130.424C204.528 130.486 204.068 130.669 203.679 130.972C203.29 131.275 203.025 131.718 202.884 132.299Z" fill="black"/>
<path d="M200.38 137.794L209.497 138.135L209.037 139.467L202.105 139.064L202.076 139.15L207.78 143.097L207.312 144.45L200.417 144.011L200.387 144.097L206.063 148.058L205.602 149.389L198.225 144.022L198.656 142.776L205.616 143.165L205.661 143.036L199.949 139.039L200.38 137.794Z" fill="black"/>
<path d="M201.746 149.226L196.97 147.045L197.528 145.825L205.466 149.45L204.928 150.629L203.688 150.062L203.64 150.166C203.959 150.536 204.153 150.966 204.225 151.457C204.3 151.949 204.2 152.495 203.927 153.095C203.681 153.632 203.356 154.052 202.952 154.355C202.55 154.659 202.076 154.821 201.53 154.842C200.986 154.865 200.377 154.722 199.702 154.413L194.657 152.11L195.214 150.89L200.176 153.156C200.8 153.441 201.359 153.501 201.855 153.336C202.355 153.172 202.733 152.808 202.992 152.243C203.169 151.854 203.244 151.467 203.215 151.083C203.185 150.703 203.048 150.351 202.804 150.027C202.56 149.704 202.208 149.436 201.746 149.226Z" fill="black"/>
<path d="M196.25 163.156L196.557 161.942C196.769 161.977 196.994 161.978 197.232 161.944C197.471 161.916 197.707 161.825 197.94 161.671C198.174 161.517 198.388 161.271 198.583 160.933C198.85 160.471 198.966 160.024 198.931 159.592C198.897 159.166 198.718 158.859 198.393 158.672C198.104 158.505 197.816 158.478 197.527 158.592C197.239 158.705 196.91 158.953 196.541 159.334L195.617 160.297C195.063 160.878 194.522 161.237 193.992 161.373C193.467 161.511 192.939 161.428 192.411 161.123C191.978 160.873 191.663 160.525 191.466 160.079C191.267 159.636 191.197 159.136 191.256 158.579C191.314 158.023 191.513 157.451 191.852 156.864C192.297 156.093 192.833 155.552 193.459 155.24C194.086 154.928 194.759 154.89 195.48 155.127L195.119 156.388C194.652 156.258 194.232 156.28 193.86 156.455C193.486 156.633 193.162 156.959 192.887 157.435C192.575 157.976 192.441 158.472 192.487 158.923C192.535 159.379 192.721 159.701 193.045 159.888C193.308 160.04 193.581 160.075 193.864 159.993C194.15 159.914 194.448 159.709 194.756 159.38L195.779 158.291C196.342 157.693 196.89 157.332 197.422 157.206C197.955 157.085 198.483 157.175 199.004 157.476C199.431 157.723 199.739 158.06 199.929 158.489C200.117 158.921 200.184 159.4 200.13 159.924C200.075 160.452 199.894 160.982 199.587 161.513C199.155 162.261 198.652 162.753 198.078 162.99C197.502 163.231 196.892 163.286 196.25 163.156Z" fill="black"/>
<path d="M186.671 164.932C187.146 164.266 187.712 163.804 188.369 163.547C189.027 163.289 189.724 163.228 190.461 163.362C191.198 163.496 191.921 163.816 192.631 164.321C193.353 164.835 193.895 165.422 194.259 166.08C194.623 166.744 194.791 167.426 194.762 168.126C194.734 168.832 194.491 169.505 194.034 170.147C193.678 170.647 193.265 171.032 192.794 171.301C192.323 171.57 191.83 171.714 191.314 171.733C190.799 171.752 190.297 171.634 189.809 171.379L190.586 170.287C190.97 170.434 191.389 170.454 191.843 170.345C192.298 170.241 192.697 169.948 193.04 169.467C193.343 169.041 193.498 168.589 193.504 168.11C193.511 167.636 193.378 167.167 193.104 166.702C192.832 166.243 192.427 165.822 191.89 165.44C191.341 165.049 190.801 164.794 190.271 164.677C189.738 164.563 189.246 164.585 188.794 164.742C188.341 164.903 187.96 165.199 187.652 165.631C187.45 165.915 187.316 166.207 187.25 166.509C187.184 166.811 187.186 167.108 187.257 167.4C187.328 167.692 187.469 167.965 187.68 168.217L186.902 169.31C186.526 168.949 186.257 168.527 186.094 168.044C185.933 167.566 185.895 167.058 185.981 166.519C186.067 165.986 186.298 165.457 186.671 164.932Z" fill="black"/>
<path d="M182.579 170.545L189.175 176.26L188.327 177.239L187.33 176.376L187.271 176.444C187.493 176.847 187.569 177.294 187.5 177.785C187.43 178.276 187.224 178.719 186.882 179.114C186.817 179.189 186.735 179.281 186.636 179.39C186.536 179.499 186.459 179.58 186.403 179.632L185.373 178.739C185.411 178.712 185.492 178.645 185.616 178.536C185.74 178.433 185.861 178.315 185.977 178.18C186.255 177.86 186.436 177.515 186.519 177.146C186.604 176.783 186.592 176.427 186.483 176.078C186.375 175.734 186.173 175.433 185.875 175.175L181.701 171.558L182.579 170.545Z" fill="black"/>
<path d="M175.252 178.104C175.822 177.561 176.451 177.219 177.141 177.08C177.827 176.944 178.524 177.005 179.23 177.263C179.934 177.523 180.597 177.98 181.219 178.632C181.846 179.29 182.275 179.978 182.504 180.696C182.731 181.417 182.76 182.117 182.591 182.796C182.419 183.478 182.048 184.091 181.478 184.634C180.908 185.178 180.279 185.518 179.593 185.655C178.904 185.794 178.206 185.731 177.5 185.468C176.79 185.207 176.122 184.748 175.495 184.09C174.873 183.438 174.45 182.753 174.226 182.035C173.999 181.319 173.971 180.621 174.143 179.939C174.312 179.26 174.681 178.648 175.252 178.104ZM176.083 178.976C175.65 179.389 175.399 179.84 175.331 180.329C175.263 180.817 175.335 181.307 175.545 181.797C175.756 182.287 176.063 182.743 176.465 183.165C176.868 183.587 177.31 183.916 177.792 184.153C178.274 184.389 178.762 184.487 179.256 184.445C179.75 184.403 180.214 184.176 180.647 183.763C181.08 183.35 181.329 182.898 181.394 182.406C181.46 181.915 181.386 181.423 181.172 180.93C180.959 180.437 180.651 179.98 180.248 179.558C179.846 179.135 179.405 178.807 178.926 178.574C178.446 178.34 177.961 178.245 177.469 178.29C176.978 178.334 176.516 178.563 176.083 178.976Z" fill="black"/>
<path d="M175.163 193.78L167.969 184.633L169.023 183.804L176.217 192.951L175.163 193.78Z" fill="black"/>
<path d="M166.904 199.595L160.613 189.806L161.741 189.081L168.032 198.87L166.904 199.595Z" fill="black"/>
<path d="M145.498 197.385C146.173 197.114 146.837 197.046 147.491 197.18C148.146 197.318 148.744 197.641 149.287 198.151C149.831 198.663 150.274 199.348 150.618 200.207C150.958 201.058 151.108 201.854 151.067 202.597C151.026 203.34 150.813 203.986 150.429 204.536C150.045 205.085 149.512 205.496 148.83 205.769C148.302 205.981 147.851 206.06 147.474 206.006C147.096 205.958 146.781 205.855 146.531 205.698C146.278 205.547 146.078 205.419 145.93 205.314L145.825 205.357L147.421 209.344L146.177 209.843L141.852 199.04L143.054 198.559L143.553 199.803L143.7 199.744C143.733 199.56 143.788 199.322 143.867 199.029C143.947 198.74 144.108 198.445 144.351 198.144C144.595 197.846 144.977 197.593 145.498 197.385ZM145.777 198.57C145.277 198.77 144.907 199.069 144.667 199.468C144.428 199.869 144.312 200.338 144.318 200.874C144.326 201.414 144.452 201.989 144.697 202.601C144.939 203.206 145.239 203.7 145.597 204.083C145.955 204.47 146.358 204.721 146.804 204.836C147.251 204.955 147.728 204.913 148.235 204.71C148.762 204.499 149.147 204.188 149.391 203.776C149.632 203.37 149.748 202.901 149.739 202.37C149.729 201.844 149.609 201.296 149.381 200.726C149.15 200.149 148.853 199.66 148.488 199.26C148.122 198.864 147.709 198.597 147.249 198.458C146.788 198.325 146.297 198.362 145.777 198.57Z" fill="black"/>
<path d="M136.791 200.434C137.547 200.212 138.263 200.197 138.939 200.389C139.612 200.582 140.203 200.956 140.713 201.509C141.219 202.063 141.599 202.772 141.853 203.637C142.109 204.509 142.174 205.317 142.049 206.061C141.92 206.805 141.625 207.441 141.164 207.967C140.699 208.494 140.089 208.869 139.333 209.091C138.577 209.313 137.862 209.327 137.19 209.134C136.513 208.942 135.922 208.567 135.414 208.009C134.904 207.452 134.52 206.738 134.264 205.865C134.01 205 133.948 204.198 134.078 203.457C134.204 202.717 134.5 202.083 134.965 201.556C135.426 201.03 136.035 200.656 136.791 200.434ZM137.13 201.589C136.556 201.758 136.126 202.044 135.842 202.447C135.558 202.85 135.397 203.318 135.36 203.85C135.323 204.382 135.386 204.928 135.551 205.488C135.715 206.047 135.957 206.543 136.277 206.974C136.597 207.405 136.986 207.715 137.445 207.904C137.903 208.093 138.419 208.104 138.993 207.935C139.567 207.766 139.996 207.479 140.279 207.072C140.563 206.665 140.722 206.194 140.758 205.658C140.795 205.122 140.73 204.575 140.566 204.015C140.402 203.455 140.16 202.962 139.841 202.534C139.522 202.107 139.134 201.8 138.677 201.615C138.22 201.429 137.704 201.421 137.13 201.589Z" fill="black"/>
<path d="M131.12 202.169L135.383 210.235L133.999 210.502L130.882 204.298L130.793 204.315L130.228 211.228L128.822 211.499L125.754 205.309L125.665 205.326L125.073 212.222L123.689 212.489L124.648 203.416L125.943 203.166L129.086 209.389L129.22 209.363L129.826 202.418L131.12 202.169Z" fill="black"/>
<path d="M121.903 209.067L121.404 203.841L122.738 203.713L123.568 212.401L122.278 212.524L122.149 211.167L122.036 211.178C121.874 211.638 121.599 212.022 121.21 212.33C120.821 212.641 120.298 212.828 119.642 212.89C119.054 212.946 118.528 212.875 118.064 212.676C117.6 212.48 117.222 212.151 116.93 211.688C116.639 211.229 116.458 210.63 116.388 209.891L115.861 204.37L117.195 204.243L117.714 209.673C117.779 210.355 118.007 210.87 118.398 211.217C118.789 211.568 119.294 211.713 119.912 211.654C120.338 211.614 120.71 211.485 121.028 211.268C121.343 211.052 121.579 210.757 121.737 210.384C121.896 210.011 121.951 209.572 121.903 209.067Z" fill="black"/>
<path d="M107.091 211.273L108.295 210.932C108.371 211.133 108.483 211.328 108.631 211.517C108.775 211.71 108.972 211.869 109.222 211.994C109.472 212.119 109.792 212.182 110.182 212.182C110.716 212.182 111.161 212.059 111.517 211.812C111.869 211.57 112.045 211.261 112.045 210.886C112.045 210.553 111.924 210.29 111.682 210.097C111.439 209.903 111.061 209.742 110.545 209.614L109.25 209.295C108.47 209.106 107.888 208.816 107.506 208.426C107.123 208.04 106.932 207.542 106.932 206.932C106.932 206.432 107.076 205.985 107.364 205.591C107.648 205.197 108.045 204.886 108.557 204.659C109.068 204.432 109.663 204.318 110.341 204.318C111.231 204.318 111.968 204.511 112.551 204.898C113.134 205.284 113.504 205.848 113.659 206.591L112.386 206.909C112.265 206.439 112.036 206.087 111.699 205.852C111.358 205.617 110.913 205.5 110.364 205.5C109.739 205.5 109.242 205.633 108.875 205.898C108.504 206.167 108.318 206.489 108.318 206.864C108.318 207.167 108.424 207.42 108.636 207.625C108.848 207.833 109.174 207.989 109.614 208.091L111.068 208.432C111.867 208.621 112.455 208.915 112.83 209.312C113.201 209.714 113.386 210.216 113.386 210.818C113.386 211.311 113.248 211.746 112.972 212.125C112.691 212.504 112.311 212.801 111.83 213.017C111.345 213.233 110.795 213.341 110.182 213.341C109.318 213.341 108.64 213.152 108.148 212.773C107.652 212.394 107.299 211.894 107.091 211.273Z" fill="black"/>
<path d="M100.763 203.865C101.577 203.943 102.26 204.202 102.812 204.643C103.363 205.084 103.765 205.657 104.018 206.362C104.27 207.067 104.355 207.853 104.272 208.721C104.188 209.603 103.951 210.366 103.562 211.01C103.17 211.658 102.663 212.144 102.042 212.469C101.417 212.797 100.712 212.924 99.928 212.849C99.3171 212.791 98.7774 212.625 98.3088 212.352C97.8402 212.079 97.4688 211.724 97.1948 211.287C96.9207 210.85 96.7719 210.356 96.7483 209.806L98.0831 209.933C98.1471 210.339 98.3399 210.711 98.6614 211.05C98.9788 211.393 99.4316 211.592 100.02 211.648C100.54 211.698 101.009 211.605 101.427 211.371C101.841 211.141 102.181 210.791 102.447 210.322C102.708 209.856 102.87 209.295 102.933 208.638C102.997 207.967 102.947 207.373 102.783 206.855C102.616 206.337 102.351 205.921 101.989 205.609C101.623 205.296 101.176 205.115 100.648 205.064C100.302 205.031 99.981 205.061 99.6866 205.155C99.3923 205.249 99.1363 205.399 98.9186 205.607C98.7009 205.814 98.5355 206.073 98.4223 206.381L97.0875 206.254C97.2119 205.748 97.4426 205.304 97.7797 204.922C98.1127 204.542 98.534 204.255 99.0435 204.061C99.5488 203.869 100.122 203.804 100.763 203.865Z" fill="black"/>
<path d="M93.8565 203.128L92.2048 211.697L90.9328 211.452L91.1822 210.158L91.093 210.141C90.855 210.534 90.506 210.824 90.046 211.009C89.586 211.195 89.0993 211.238 88.586 211.139C88.4893 211.12 88.3688 211.095 88.2245 211.063C88.0801 211.032 87.9715 211.005 87.8985 210.983L88.1566 209.644C88.1991 209.664 88.2981 209.7 88.4538 209.753C88.605 209.81 88.768 209.855 88.9428 209.888C89.3594 209.968 89.7481 209.953 90.1091 209.841C90.4657 209.732 90.7682 209.544 91.0167 209.275C91.2607 209.01 91.42 208.684 91.4946 208.297L92.5398 202.874L93.8565 203.128Z" fill="black"/>
<path d="M83.6456 200.562C84.4015 200.784 85.012 201.158 85.477 201.686C85.9383 202.212 86.2339 202.845 86.3637 203.586C86.49 204.326 86.4261 205.128 86.1721 205.993C85.916 206.866 85.5343 207.581 85.0271 208.138C84.5163 208.695 83.9245 209.07 83.2519 209.263C82.5756 209.456 81.8595 209.441 81.1036 209.219C80.3476 208.997 79.739 208.623 79.2776 208.097C78.8127 207.569 78.5176 206.934 78.3924 206.19C78.2636 205.446 78.3273 204.638 78.5834 203.765C78.8374 202.9 79.2193 202.191 79.7291 201.638C80.2352 201.084 80.8264 200.711 81.5027 200.519C82.1753 200.325 82.8896 200.34 83.6456 200.562ZM83.3062 201.717C82.732 201.549 82.2163 201.557 81.7591 201.743C81.302 201.928 80.9139 202.235 80.595 202.662C80.276 203.09 80.0343 203.583 79.87 204.143C79.7057 204.703 79.6416 205.25 79.6777 205.786C79.7139 206.322 79.8736 206.793 80.1568 207.2C80.44 207.607 80.8687 207.895 81.4429 208.063C82.0172 208.232 82.5334 208.221 82.9916 208.032C83.4498 207.843 83.839 207.533 84.159 207.102C84.479 206.671 84.7212 206.175 84.8855 205.616C85.0499 205.056 85.1134 204.51 85.0762 203.978C85.039 203.446 84.8783 202.978 84.594 202.575C84.3097 202.172 83.8805 201.886 83.3062 201.717Z" fill="black"/>
<path d="M70.0256 208.322L74.3504 197.52L75.5953 198.018L71.2705 208.821L70.0256 208.322Z" fill="black"/>
<path d="M60.8605 204.077L66.1926 193.735L67.3844 194.349L62.0523 204.692L60.8605 204.077Z" fill="black"/>
<path d="M52.0716 184.434C52.6432 184.884 53.0343 185.425 53.2449 186.058C53.4531 186.694 53.4724 187.374 53.3028 188.099C53.1308 188.826 52.7591 189.553 52.1878 190.279C51.6211 191 51.0058 191.528 50.3419 191.864C49.678 192.199 49.0121 192.338 48.3443 192.28C47.6766 192.223 47.0538 191.967 46.4762 191.512C46.0296 191.161 45.7353 190.809 45.5933 190.457C45.446 190.105 45.3777 189.781 45.3882 189.486C45.3935 189.191 45.4042 188.954 45.4205 188.774L45.3311 188.704L42.6759 192.08L41.6218 191.251L48.8149 182.104L49.8332 182.905L49.0044 183.959L49.1294 184.058C49.3052 183.993 49.5394 183.922 49.8322 183.844C50.1226 183.769 50.4589 183.761 50.841 183.821C51.2207 183.883 51.6309 184.088 52.0716 184.434ZM51.184 185.269C50.7612 184.936 50.3173 184.765 49.8522 184.756C49.3848 184.75 48.9207 184.884 48.4597 185.157C47.9965 185.434 47.5611 185.831 47.1537 186.349C46.7509 186.861 46.473 187.368 46.3198 187.869C46.1643 188.373 46.1481 188.847 46.2713 189.291C46.3922 189.738 46.667 190.13 47.0958 190.467C47.5424 190.818 48.0047 190.997 48.4828 191.001C48.9555 191.007 49.4196 190.873 49.8753 190.6C50.3256 190.328 50.7404 189.951 51.1197 189.468C51.5037 188.98 51.7781 188.478 51.943 187.962C52.1026 187.446 52.1275 186.955 52.0177 186.488C51.9026 186.022 51.6247 185.615 51.184 185.269Z" fill="black"/>
<path d="M45.0775 178.418C45.6477 178.962 46.0186 179.575 46.1902 180.256C46.3591 180.936 46.3316 181.634 46.1075 182.352C45.8807 183.067 45.4563 183.751 44.8342 184.404C44.2068 185.062 43.54 185.522 42.8336 185.786C42.1244 186.046 41.4266 186.109 40.7402 185.972C40.051 185.833 39.4213 185.492 38.8511 184.948C38.2809 184.404 37.9113 183.793 37.7425 183.114C37.5708 182.432 37.5997 181.732 37.8291 181.014C38.0558 180.293 38.4828 179.604 39.1101 178.946C39.7322 178.294 40.3965 177.838 41.1031 177.58C41.8068 177.32 42.5033 177.259 43.1925 177.398C43.879 177.534 44.5073 177.874 45.0775 178.418ZM44.2463 179.29C43.8131 178.877 43.3509 178.648 42.8595 178.604C42.3682 178.559 41.8828 178.654 41.4034 178.887C40.9241 179.121 40.4831 179.449 40.0806 179.871C39.678 180.293 39.3701 180.751 39.1568 181.244C38.9434 181.736 38.8694 182.228 38.9347 182.72C39 183.211 39.2492 183.663 39.6823 184.076C40.1155 184.489 40.579 184.717 41.073 184.759C41.567 184.8 42.0549 184.703 42.5369 184.467C43.0189 184.23 43.4612 183.901 43.8637 183.479C44.2663 183.056 44.5729 182.6 44.7836 182.11C44.9943 181.62 45.0657 181.131 44.9978 180.642C44.9299 180.154 44.6794 179.703 44.2463 179.29Z" fill="black"/>
<path d="M40.7397 174.375L35.8854 182.1L34.9627 181.035L38.7771 175.233L38.7176 175.165L32.4474 178.132L31.5098 177.05L35.3368 171.298L35.2773 171.229L29.0094 174.164L28.0866 173.099L36.4236 169.394L37.2868 170.39L33.4701 176.223L33.5594 176.326L39.8765 173.379L40.7397 174.375Z" fill="black"/>
<path d="M30.1566 169.842L34.4332 166.796L35.211 167.889L28.1019 172.951L27.3505 171.896L28.4613 171.105L28.3954 171.012C27.9157 171.103 27.4455 171.056 26.9848 170.873C26.5209 170.691 26.0978 170.332 25.7155 169.796C25.3728 169.314 25.1716 168.823 25.112 168.321C25.0493 167.822 25.1456 167.33 25.4008 166.846C25.6529 166.364 26.0814 165.908 26.6861 165.477L31.2033 162.261L31.9811 163.353L27.538 166.517C26.9795 166.914 26.6477 167.369 26.5426 167.881C26.4344 168.395 26.5605 168.905 26.9208 169.412C27.1691 169.76 27.4666 170.018 27.8134 170.185C28.1579 170.349 28.5312 170.406 28.9333 170.357C29.3354 170.308 29.7432 170.136 30.1566 169.842Z" fill="black"/>
<path d="M20.8407 158.117L21.7382 158.99C21.6022 159.156 21.4892 159.35 21.399 159.573C21.3037 159.794 21.2644 160.044 21.2811 160.323C21.2979 160.602 21.4038 160.91 21.5989 161.248C21.8659 161.711 22.1951 162.035 22.5863 162.22C22.9724 162.404 23.3278 162.402 23.6526 162.215C23.9413 162.048 24.1086 161.811 24.1547 161.505C24.2008 161.198 24.1508 160.79 24.0048 160.279L23.6326 158.998C23.4065 158.228 23.3667 157.579 23.5133 157.053C23.6566 156.528 23.9924 156.114 24.5205 155.809C24.9535 155.559 25.4126 155.46 25.8977 155.512C26.3809 155.561 26.8487 155.751 27.3012 156.08C27.7537 156.409 28.1495 156.867 28.4885 157.454C28.9336 158.225 29.1347 158.96 29.0917 159.658C29.0488 160.357 28.7447 160.959 28.1794 161.464L27.2675 160.521C27.6136 160.181 27.8041 159.807 27.8389 159.397C27.8719 158.985 27.751 158.541 27.4764 158.065C27.1639 157.524 26.801 157.16 26.3876 156.975C25.9691 156.788 25.5975 156.788 25.2727 156.975C25.0103 157.127 24.8435 157.346 24.7725 157.632C24.6981 157.919 24.7265 158.279 24.8576 158.711L25.2896 160.141C25.5252 160.928 25.5646 161.583 25.4076 162.107C25.2455 162.629 24.9037 163.041 24.3821 163.342C23.9556 163.588 23.5093 163.686 23.043 163.636C22.5748 163.583 22.1269 163.402 21.6994 163.093C21.27 162.781 20.9019 162.359 20.5951 161.828C20.1632 161.08 19.9883 160.398 20.0701 159.782C20.15 159.163 20.4069 158.608 20.8407 158.117Z" fill="black"/>
<path d="M24.0919 148.933C24.4318 149.677 24.5487 150.398 24.4427 151.096C24.3368 151.794 24.0415 152.429 23.5569 153C23.0723 153.571 22.4338 154.038 21.6413 154.4C20.8351 154.768 20.0559 154.945 19.3038 154.93C18.5467 154.913 17.8722 154.718 17.2803 154.342C16.6834 153.965 16.2213 153.419 15.894 152.702C15.639 152.144 15.5127 151.594 15.5149 151.051C15.517 150.509 15.6389 150.01 15.8804 149.554C16.1219 149.098 16.475 148.722 16.9397 148.427L17.4967 149.646C17.1774 149.905 16.9514 150.258 16.8187 150.706C16.6809 151.152 16.7347 151.643 16.9802 152.181C17.1974 152.656 17.5118 153.017 17.9235 153.262C18.3302 153.505 18.8032 153.624 19.3424 153.619C19.8766 153.613 20.4434 153.473 21.0429 153.199C21.6562 152.919 22.1463 152.578 22.513 152.178C22.8781 151.774 23.1054 151.337 23.1948 150.867C23.2827 150.394 23.2165 149.916 22.9962 149.433C22.8514 149.116 22.6649 148.854 22.4366 148.646C22.2084 148.438 21.9499 148.291 21.6614 148.207C21.3728 148.122 21.0665 148.108 20.7425 148.164L20.1854 146.944C20.6855 146.799 21.1855 146.777 21.6854 146.878C22.1802 146.977 22.6394 147.198 23.0629 147.542C23.4814 147.884 23.8244 148.347 24.0919 148.933Z" fill="black"/>
<path d="M21.2772 142.583L13.0299 145.438L12.6062 144.213L13.8519 143.782L13.8222 143.696C13.3621 143.687 12.9368 143.53 12.5464 143.224C12.156 142.918 11.8753 142.518 11.7043 142.024C11.6721 141.931 11.6336 141.814 11.5889 141.673C11.5442 141.533 11.513 141.425 11.4954 141.351L12.784 140.905C12.7881 140.952 12.8061 141.056 12.8379 141.217C12.8649 141.376 12.9075 141.54 12.9657 141.708C13.1044 142.109 13.3124 142.438 13.5897 142.695C13.8622 142.949 14.1767 143.117 14.5334 143.198C14.8853 143.276 15.2474 143.251 15.6197 143.122L20.8387 141.316L21.2772 142.583Z" fill="black"/>
<path d="M18.3941 132.457C18.5798 133.223 18.5606 133.939 18.3364 134.605C18.1113 135.268 17.7104 135.841 17.1337 136.324C16.5562 136.803 15.8294 137.149 14.9533 137.361C14.0698 137.576 13.2598 137.603 12.5231 137.442C11.7856 137.278 11.165 136.953 10.6613 136.467C10.1566 135.978 9.81145 135.35 9.6257 134.584C9.43996 133.819 9.45964 133.105 9.68476 132.442C9.90898 131.776 10.3117 131.202 10.8929 130.722C11.4733 130.238 12.2052 129.889 13.0886 129.675C13.9647 129.463 14.7697 129.439 15.5035 129.604C16.2364 129.765 16.8552 130.09 17.3599 130.58C17.8636 131.066 18.2083 131.692 18.3941 132.457ZM17.2235 132.741C17.0824 132.16 16.8172 131.717 16.428 131.414C16.0387 131.111 15.5793 130.928 15.0496 130.866C14.5199 130.803 13.9716 130.841 13.4048 130.978C12.8379 131.116 12.3315 131.334 11.8857 131.633C11.4398 131.932 11.1116 132.306 10.9008 132.755C10.69 133.204 10.6552 133.719 10.7963 134.3C10.9374 134.882 11.2044 135.324 11.5974 135.626C11.9903 135.928 12.4534 136.11 12.9868 136.172C13.5201 136.234 14.0702 136.196 14.6371 136.058C15.204 135.921 15.7085 135.703 16.1507 135.404C16.5928 135.106 16.9174 134.733 17.1245 134.285C17.3316 133.838 17.3646 133.323 17.2235 132.741Z" fill="black"/>
<path d="M4.86311 124.542L16.381 122.886L16.5719 124.214L5.05394 125.87L4.86311 124.542Z" fill="black"/>
<path d="M3.95683 114.483L15.58 113.929L15.6438 115.268L4.02064 115.822L3.95683 114.483Z" fill="black"/>
<path d="M16.5739 97.0495C16.4704 97.7694 16.1972 98.3788 15.7543 98.8776C15.3076 99.3759 14.7282 99.7327 14.0161 99.948C13.3002 100.163 12.4849 100.204 11.57 100.073C10.6627 99.9423 9.8977 99.6735 9.27506 99.2663C8.65242 98.8592 8.19916 98.352 7.91525 97.7448C7.63135 97.1376 7.54169 96.4703 7.64627 95.743C7.72713 95.1806 7.88474 94.7497 8.11911 94.4505C8.35026 94.147 8.59634 93.926 8.85735 93.7875C9.11514 93.6447 9.32604 93.5353 9.49002 93.4594L9.5062 93.3469L5.25446 92.7356L5.44529 91.4083L16.9632 93.0644L16.7789 94.3466L15.4516 94.1558L15.429 94.3133C15.5724 94.4334 15.7512 94.6007 15.9653 94.8152C16.1756 95.0291 16.3505 95.3164 16.49 95.677C16.6257 96.0371 16.6537 96.4946 16.5739 97.0495ZM15.4075 96.6981C15.4841 96.1657 15.41 95.6959 15.1854 95.2885C14.957 94.8807 14.6091 94.5456 14.1417 94.2832C13.6706 94.0203 13.1088 93.8419 12.4564 93.7481C11.8115 93.6554 11.2338 93.668 10.7231 93.7859C10.2088 93.9033 9.79021 94.1263 9.46743 94.4549C9.1409 94.783 8.93882 95.217 8.8612 95.7569C8.78034 96.3193 8.8573 96.8087 9.09209 97.2252C9.32367 97.6373 9.67157 97.9724 10.1358 98.2305C10.5968 98.4843 11.131 98.6549 11.7384 98.7422C12.3532 98.8306 12.9254 98.8172 13.4547 98.702C13.9809 98.5825 14.4187 98.3584 14.7683 98.0298C15.1147 97.6969 15.3277 97.253 15.4075 96.6981Z" fill="black"/>
<path d="M18.2869 87.9845C18.1012 88.7502 17.756 89.3778 17.2513 89.8673C16.7476 90.3531 16.1288 90.6785 15.395 90.8435C14.6621 91.0048 13.8575 90.9792 12.9814 90.7667C12.098 90.5523 11.3656 90.2051 10.7844 89.725C10.2041 89.2412 9.80136 88.668 9.57624 88.0053C9.35201 87.339 9.33278 86.623 9.51853 85.8573C9.70428 85.0916 10.049 84.4659 10.5528 83.98C11.0574 83.4905 11.678 83.1656 12.4146 83.0051C13.1521 82.8411 13.9626 82.8662 14.8461 83.0805C15.7222 83.2931 16.4486 83.6408 17.0252 84.1237C17.6028 84.6029 18.0036 85.1757 18.2279 85.842C18.453 86.5047 18.4727 87.2188 18.2869 87.9845ZM17.1163 87.7005C17.2574 87.1189 17.2244 86.6042 17.0174 86.1564C16.8103 85.7086 16.4857 85.3355 16.0435 85.0373C15.6014 84.739 15.0968 84.5211 14.53 84.3836C13.9631 84.2461 13.4129 84.2081 12.8796 84.2697C12.3463 84.3313 11.8831 84.5133 11.4902 84.8155C11.0972 85.1177 10.8302 85.5597 10.6891 86.1413C10.548 86.7229 10.5829 87.2381 10.7936 87.6868C11.0044 88.1355 11.3327 88.5094 11.7785 88.8085C12.2243 89.1077 12.7307 89.326 13.2976 89.4635C13.8645 89.6011 14.4127 89.6386 14.9424 89.5761C15.4721 89.5136 15.9315 89.3308 16.3208 89.0276C16.71 88.7245 16.9752 88.2821 17.1163 87.7005Z" fill="black"/>
<path d="M19.6196 82.2063L10.5026 81.8647L10.9635 80.5331L17.8948 80.9359L17.9245 80.85L12.2197 76.9035L12.688 75.5504L19.583 75.9887L19.6127 75.9028L13.9368 71.9422L14.3977 70.6106L21.7753 75.9779L21.3441 77.2235L14.3839 76.8348L14.3393 76.9637L20.0507 80.9606L19.6196 82.2063Z" fill="black"/>
<path d="M18.254 70.7744L23.0296 72.9553L22.4725 74.1751L14.5339 70.5496L15.0721 69.3712L16.3125 69.9377L16.3597 69.8344C16.0415 69.4642 15.8467 69.0337 15.7751 68.543C15.7002 68.0507 15.7996 67.5048 16.0733 66.9052C16.3188 66.3677 16.6439 65.9478 17.0485 65.6453C17.4497 65.3413 17.9236 65.1789 18.4704 65.1579C19.0137 65.1353 19.623 65.2783 20.2984 65.5867L25.3427 67.8903L24.7857 69.1101L19.824 66.8442C19.2004 66.5594 18.6406 66.4994 18.1447 66.6644C17.6453 66.8278 17.2666 67.192 17.0085 67.7571C16.8307 68.1464 16.7562 68.533 16.785 68.9167C16.8154 69.2971 16.9524 69.649 17.196 69.9727C17.4396 70.2963 17.7923 70.5636 18.254 70.7744Z" fill="black"/>
<path d="M23.7498 56.8443L23.4428 58.0579C23.231 58.0231 23.0062 58.0224 22.7683 58.0556C22.5291 58.0837 22.2928 58.1747 22.0595 58.3287C21.8263 58.4827 21.6121 58.7287 21.417 59.0666C21.15 59.5291 21.0341 59.9761 21.0693 60.4076C21.1031 60.8338 21.2824 61.1407 21.6071 61.3282C21.8958 61.4949 22.1844 61.5216 22.4729 61.4082C22.7614 61.2949 23.0902 61.0473 23.4593 60.6656L24.3826 59.7028C24.9368 59.1217 25.4785 58.763 26.0076 58.6268C26.5335 58.4887 27.0605 58.572 27.5887 58.877C28.0217 59.127 28.3368 59.4751 28.534 59.9214C28.7332 60.3644 28.8033 60.8641 28.7444 61.4206C28.6856 61.9771 28.4866 62.549 28.1476 63.1361C27.7025 63.907 27.1669 64.4485 26.5406 64.7605C25.9143 65.0725 25.2409 65.1101 24.5203 64.8734L24.8811 63.6121C25.3485 63.742 25.7681 63.7197 26.1401 63.5451C26.5139 63.3673 26.8381 63.0406 27.1128 62.5649C27.4253 62.0237 27.5586 61.5276 27.5126 61.0769C27.4653 60.6209 27.2793 60.2992 26.9545 60.1117C26.6921 59.9602 26.4193 59.9251 26.1361 60.0066C25.8496 60.0861 25.5522 60.2906 25.244 60.6199L24.2215 61.7092C23.6578 62.3066 23.11 62.6683 22.5781 62.7942C22.0448 62.9149 21.5173 62.8247 20.9957 62.5236C20.5693 62.2774 20.2612 61.9398 20.0714 61.511C19.8835 61.0788 19.8163 60.6005 19.8699 60.0759C19.9253 59.5481 20.1064 59.0184 20.4132 58.487C20.8451 57.7391 21.3481 57.2466 21.9224 57.0095C22.4985 56.7692 23.1076 56.7141 23.7498 56.8443Z" fill="black"/>
<path d="M33.3289 55.0679C32.8543 55.7344 32.2882 56.1963 31.6308 56.4535C30.9733 56.7107 30.2761 56.7723 29.5392 56.6382C28.8024 56.504 28.0791 56.1843 27.3694 55.679C26.6474 55.1648 26.1047 54.5784 25.7414 53.9198C25.3771 53.2558 25.2095 52.5738 25.2384 51.8736C25.2665 51.1682 25.509 50.4945 25.966 49.8528C26.3219 49.3529 26.7353 48.9683 27.2061 48.699C27.6768 48.4298 28.17 48.2857 28.6856 48.2669C29.2012 48.2481 29.7031 48.3661 30.1914 48.6207L29.4136 49.713C29.0303 49.5656 28.6115 49.5464 28.1572 49.6554C27.7021 49.7591 27.3031 50.0516 26.9604 50.5329C26.6572 50.9587 26.5024 51.4112 26.496 51.8903C26.4888 52.3641 26.622 52.8333 26.8957 53.2979C27.1685 53.7572 27.5733 54.178 28.1102 54.5603C28.6594 54.9514 29.1992 55.2056 29.7295 55.3228C30.2621 55.437 30.7541 55.4154 31.2057 55.2579C31.6594 55.0974 32.0401 54.8012 32.3477 54.3692C32.5498 54.0854 32.6839 53.7926 32.75 53.4908C32.816 53.1891 32.8136 52.8921 32.7427 52.5998C32.6719 52.3076 32.531 52.0352 32.3202 51.7828L33.098 50.6905C33.4736 51.051 33.7429 51.4729 33.9056 51.9562C34.0675 52.4341 34.1054 52.9424 34.0194 53.4811C33.9326 54.0144 33.7024 54.5434 33.3289 55.0679Z" fill="black"/>
<path d="M37.4208 49.4554L30.8252 43.7402L31.6735 42.7612L32.6697 43.6244L32.7292 43.5557C32.5071 43.1527 32.4308 42.7057 32.5004 42.2147C32.57 41.7237 32.776 41.2806 33.1183 40.8856C33.1828 40.8112 33.2648 40.7194 33.3644 40.6102C33.464 40.501 33.5415 40.4203 33.5969 40.368L34.6274 41.261C34.5891 41.2879 34.508 41.3555 34.3841 41.4637C34.2599 41.5666 34.1395 41.6853 34.0229 41.8198C33.7451 42.1404 33.5643 42.485 33.4806 42.8535C33.3965 43.2167 33.4085 43.5729 33.5167 43.9223C33.6246 44.2664 33.8274 44.5674 34.1251 44.8254L38.2989 48.442L37.4208 49.4554Z" fill="black"/>
<path d="M44.7485 41.8956C44.1783 42.4393 43.5486 42.7806 42.8594 42.9196C42.173 43.056 41.4765 42.9952 40.77 42.7372C40.0662 42.4767 39.4032 42.0202 38.7811 41.3677C38.1538 40.7098 37.7254 40.0217 37.496 39.3036C37.2694 38.5829 37.2405 37.8829 37.4094 37.2037C37.581 36.5219 37.9519 35.9092 38.5221 35.3655C39.0923 34.8218 39.7207 34.4818 40.4071 34.3454C41.0963 34.2064 41.7941 34.2686 42.5005 34.5319C43.2096 34.7926 43.8779 35.2519 44.5052 35.9098C45.1273 36.5623 45.5504 37.2475 45.7744 37.9655C46.0012 38.6809 46.0288 39.3795 45.8572 40.0613C45.6883 40.7404 45.3187 41.3519 44.7485 41.8956ZM43.9173 41.0238C44.3504 40.6108 44.601 40.16 44.6689 39.6713C44.7368 39.1826 44.6653 38.6933 44.4546 38.2033C44.2439 37.7134 43.9373 37.2573 43.5347 36.8351C43.1322 36.413 42.6899 36.0836 42.208 35.8471C41.726 35.6106 41.238 35.5132 40.744 35.555C40.2501 35.5969 39.7865 35.8243 39.3534 36.2373C38.9202 36.6503 38.671 37.1025 38.6057 37.5939C38.5404 38.0853 38.6145 38.5774 38.8278 39.0701C39.0411 39.5628 39.349 40.0202 39.7516 40.4424C40.1541 40.8646 40.5951 41.1925 41.0745 41.4263C41.5538 41.6601 42.0392 41.7547 42.5306 41.7101C43.0219 41.6656 43.4842 41.4368 43.9173 41.0238Z" fill="black"/>
<path d="M44.8375 26.2199L52.0306 35.3667L50.9766 36.1956L43.7835 27.0488L44.8375 26.2199Z" fill="black"/>
<path d="M53.0963 20.4052L59.3874 30.1944L58.2594 30.9193L51.9683 21.1302L53.0963 20.4052Z" fill="black"/>
<path d="M74.5024 22.6154C73.8272 22.8857 73.1629 22.9538 72.5094 22.8196C71.8545 22.682 71.2558 22.3586 70.7134 21.8495C70.1695 21.3369 69.7258 20.6515 69.3823 19.7935C69.0416 18.9425 68.8919 18.1456 68.9332 17.4028C68.9745 16.66 69.187 16.0139 69.5709 15.4644C69.9548 14.915 70.4879 14.5037 71.1701 14.2306C71.6976 14.0194 72.1495 13.9405 72.5258 13.9938C72.9042 14.0422 73.2187 14.1448 73.4691 14.3016C73.7217 14.4535 73.9219 14.5814 74.0696 14.6855L74.1751 14.6433L72.5786 10.6555L73.8235 10.1571L78.1483 20.96L76.9456 21.4414L76.4473 20.1966L76.2996 20.2557C76.2673 20.44 76.2118 20.6785 76.1331 20.9711C76.053 21.2602 75.8916 21.5553 75.6491 21.8565C75.4051 22.1541 75.0228 22.4071 74.5024 22.6154ZM74.2235 21.4296C74.7229 21.2297 75.0928 20.9306 75.3332 20.5324C75.5722 20.1307 75.6885 19.6619 75.682 19.1259C75.6741 18.5864 75.5477 18.0107 75.3027 17.3988C75.0606 16.794 74.7608 16.2999 74.4034 15.9167C74.0445 15.5299 73.6421 15.2789 73.1961 15.1637C72.7487 15.045 72.2719 15.087 71.7655 15.2897C71.238 15.5009 70.8526 15.8122 70.6094 16.2238C70.3682 16.6304 70.2519 17.0993 70.2605 17.6303C70.2712 18.1564 70.3906 18.7044 70.6187 19.274C70.8496 19.8507 71.1473 20.3395 71.5117 20.7403C71.8783 21.1362 72.2913 21.4034 72.7506 21.5418C73.2121 21.6754 73.7031 21.6379 74.2235 21.4296Z" fill="black"/>
<path d="M83.2094 19.5664C82.4535 19.7884 81.7374 19.8032 81.0611 19.611C80.3885 19.4176 79.7973 19.0444 79.2875 18.4914C78.7813 17.9373 78.4013 17.2278 78.1473 16.3628C77.8912 15.4905 77.8257 14.6827 77.9509 13.9393C78.0797 13.1948 78.3747 12.5594 78.8361 12.0331C79.301 11.5058 79.9115 11.1311 80.6674 10.9091C81.4234 10.6872 82.1377 10.6729 82.8103 10.8662C83.4866 11.0585 84.0783 11.4334 84.5855 11.9912C85.0964 12.5478 85.4799 13.2623 85.736 14.1345C85.99 14.9995 86.052 15.8025 85.9222 16.5433C85.7959 17.2831 85.5003 17.9166 85.0354 18.444C84.574 18.9703 83.9654 19.3444 83.2094 19.5664ZM82.8701 18.4106C83.4443 18.242 83.8736 17.9561 84.1579 17.5529C84.4421 17.1496 84.6029 16.682 84.6401 16.1499C84.6773 15.6179 84.6138 15.072 84.4494 14.5123C84.2851 13.9526 84.0429 13.4572 83.7229 13.0261C83.4028 12.595 83.0137 12.2849 82.5555 12.0957C82.0973 11.9066 81.581 11.8963 81.0068 12.0649C80.4326 12.2335 80.0038 12.5213 79.7206 12.9281C79.4374 13.335 79.2777 13.8063 79.2416 14.342C79.2054 14.8776 79.2695 15.4253 79.4339 15.985C79.5982 16.5447 79.8399 17.0383 80.1588 17.4658C80.4778 17.8932 80.8658 18.1997 81.323 18.3853C81.7801 18.5708 82.2958 18.5793 82.8701 18.4106Z" fill="black"/>
<path d="M88.8799 17.8314L84.6172 9.76508L86.0008 9.49841L89.1176 15.7025L89.2069 15.6853L89.7723 8.77151L91.1782 8.50054L94.2461 14.6909L94.3354 14.6737L94.9274 7.77794L96.3111 7.51127L95.3517 16.5841L94.0573 16.8335L90.9139 10.6114L90.78 10.6373L90.1742 17.5819L88.8799 17.8314Z" fill="black"/>
<path d="M98.0974 10.9328L98.5964 16.1591L97.2616 16.2865L96.432 7.59876L97.7216 7.47562L97.8512 8.83308L97.9643 8.82228C98.1258 8.36166 98.4012 7.97769 98.7904 7.67036C99.1792 7.35926 99.7017 7.17239 100.358 7.10974C100.946 7.05357 101.472 7.12508 101.937 7.32428C102.4 7.51971 102.778 7.84894 103.07 8.31196C103.361 8.77121 103.542 9.37036 103.612 10.1094L104.139 15.6298L102.805 15.7572L102.286 10.3274C102.221 9.64488 101.993 9.13013 101.602 8.78313C101.211 8.43237 100.706 8.28651 100.088 8.34556C99.6616 8.38624 99.2896 8.51499 98.9716 8.7318C98.6575 8.94825 98.4211 9.24289 98.2627 9.6157C98.1042 9.98851 98.0491 10.4276 98.0974 10.9328Z" fill="black"/>
</svg>
