<svg width="22" height="22" viewBox="0 0 22 22" fill="none" xmlns="http://www.w3.org/2000/svg">
<g clip-path="url(#clip0_3_12)">
<path d="M11 0C4.925 0 0 4.924 0 11C0 15.66 2.899 19.641 6.99 21.243C6.895 20.372 6.807 19.036 7.03 18.087C7.23 17.229 8.319 12.619 8.319 12.619C8.319 12.619 7.99 11.962 7.99 10.987C7.99 9.457 8.877 8.316 9.981 8.316C10.92 8.316 11.373 9.021 11.373 9.865C11.373 10.808 10.771 12.22 10.46 13.528C10.201 14.622 11.01 15.515 12.09 15.515C14.044 15.515 15.548 13.454 15.548 10.478C15.548 7.844 13.657 6.002 10.954 6.002C7.823 6.002 5.986 8.35 5.986 10.775C5.986 11.72 6.35 12.733 6.804 13.285C6.894 13.393 6.908 13.49 6.88 13.601C6.797 13.948 6.611 14.695 6.575 14.847C6.527 15.049 6.416 15.092 6.207 14.996C4.833 14.357 3.976 12.349 3.976 10.734C3.976 7.264 6.497 4.078 11.242 4.078C15.061 4.078 18.025 6.797 18.025 10.431C18.025 14.221 15.634 17.271 12.316 17.271C11.203 17.271 10.154 16.695 9.794 16.01C9.794 16.01 9.243 18.108 9.111 18.626C8.862 19.581 8.191 20.777 7.743 21.509C8.772 21.826 9.867 22 11 22C17.076 22 22.002 17.074 22.002 11C22.002 4.924 17.077 0 11 0Z" fill="#333333"/>
</g>
<defs>
<clipPath id="clip0_3_12">
<rect width="22.002" height="22" fill="white"/>
</clipPath>
</defs>
</svg>
