<svg width="50" height="50" viewBox="0 0 50 50" fill="none" xmlns="http://www.w3.org/2000/svg">
<g clip-path="url(#clip0_14_2)">
<path d="M25 50C38.8071 50 50 38.8071 50 25C50 11.1929 38.8071 0 25 0C11.1929 0 0 11.1929 0 25C0 38.8071 11.1929 50 25 50Z" fill="black"/>
<path d="M31.364 33.8619H18.636C18.5166 33.8619 18.3984 33.8384 18.2881 33.7927C18.1779 33.747 18.0776 33.6801 17.9932 33.5957C17.9088 33.5113 17.8419 33.4111 17.7962 33.3008C17.7505 33.1905 17.727 33.0723 17.727 32.9529V24.7709H15L24.388 16.236C24.5553 16.0838 24.7734 15.9995 24.9995 15.9995C25.2257 15.9995 25.4437 16.0838 25.611 16.236L35 24.7709H32.273V32.9479C32.2737 33.0677 32.2506 33.1865 32.2053 33.2974C32.1599 33.4082 32.093 33.5089 32.0085 33.5939C31.9241 33.6788 31.8236 33.7462 31.713 33.7922C31.6024 33.8382 31.4838 33.8619 31.364 33.8619ZM25.909 32.048H30.454V23.0959L25 18.137L19.545 23.0959V32.048H24.09V26.5889H25.908L25.909 32.048Z" fill="white"/>
</g>
<defs>
<clipPath id="clip0_14_2">
<rect width="50" height="50" fill="white"/>
</clipPath>
</defs>
</svg>
