<svg width="20" height="20" viewBox="0 0 20 20" fill="none" xmlns="http://www.w3.org/2000/svg">
<g clip-path="url(#clip0_14_12)">
<path d="M10 0C4.477 0 0 4.477 0 10C0 15.523 4.477 20 10 20C15.523 20 20 15.523 20 10C20 4.477 15.523 0 10 0ZM10 1.5C11.1162 1.5 12.2215 1.71986 13.2528 2.14702C14.2841 2.57419 15.2211 3.20029 16.0104 3.98959C16.7997 4.77889 17.4258 5.71592 17.853 6.74719C18.2801 7.77846 18.5 8.88376 18.5 10C18.5 11.1162 18.2801 12.2215 17.853 13.2528C17.4258 14.2841 16.7997 15.2211 16.0104 16.0104C15.2211 16.7997 14.2841 17.4258 13.2528 17.853C12.2215 18.2801 11.1162 18.5 10 18.5C7.74566 18.5 5.58365 17.6045 3.98959 16.0104C2.39553 14.4163 1.5 12.2543 1.5 10C1.5 7.74566 2.39553 5.58365 3.98959 3.98959C5.58365 2.39553 7.74566 1.5 10 1.5Z" fill="black"/>
<path d="M11.356 6.00004C11.356 6.74604 10.746 7.35604 10 7.35604C9.25404 7.35604 8.64404 6.74604 8.64404 6.00004C8.64404 5.25404 9.25404 4.64404 10.015 4.64404C10.762 4.64404 11.355 5.25404 11.355 6.00004H11.356ZM11 16H9.00004V9.00004H11V16Z" fill="black"/>
</g>
<defs>
<clipPath id="clip0_14_12">
<rect width="20" height="20" fill="white"/>
</clipPath>
</defs>
</svg>
