<svg width="22" height="22" viewBox="0 0 22 22" fill="none" xmlns="http://www.w3.org/2000/svg">
<g clip-path="url(#clip0_3_15)">
<path fill-rule="evenodd" clip-rule="evenodd" d="M2.538 22H19.462C20.1351 21.9995 20.7805 21.7318 21.2564 21.2557C21.7323 20.7796 21.9997 20.1341 22 19.461V2.538C22 2.20471 21.9344 1.87467 21.8068 1.56675C21.6793 1.25883 21.4923 0.979038 21.2566 0.743363C21.021 0.507688 20.7412 0.32074 20.4333 0.193194C20.1253 0.0656473 19.7953 0 19.462 0L2.538 0C1.86488 0 1.21933 0.267396 0.743363 0.743363C0.267396 1.21933 1.97024e-07 1.86488 1.97024e-07 2.538V19.461C-0.000131158 19.7944 0.0654192 20.1245 0.192907 20.4326C0.320394 20.7406 0.507321 21.0205 0.74301 21.2563C0.978698 21.4921 1.25853 21.6791 1.56652 21.8067C1.87451 21.9343 2.20462 22 2.538 22ZM15.232 3.384C15.232 2.917 15.61 2.538 16.077 2.538H18.615C19.084 2.538 19.463 2.917 19.463 3.384V5.923C19.4629 6.03423 19.4408 6.14434 19.3981 6.24706C19.3555 6.34977 19.293 6.44307 19.2142 6.52163C19.1355 6.60019 19.042 6.66246 18.9392 6.70491C18.8364 6.74735 18.7262 6.76913 18.615 6.769H16.077C15.9659 6.769 15.856 6.74711 15.7534 6.70458C15.6508 6.66205 15.5576 6.59972 15.4791 6.52115C15.4007 6.44258 15.3384 6.34931 15.296 6.24667C15.2536 6.14404 15.2319 6.03405 15.232 5.923V3.384ZM11 6.769C11.5557 6.76893 12.1059 6.87832 12.6194 7.09091C13.1328 7.3035 13.5993 7.61514 13.9923 8.00802C14.3852 8.40091 14.697 8.86735 14.9097 9.38071C15.1224 9.89408 15.2319 10.4443 15.232 11C15.2321 11.5557 15.1227 12.1059 14.9101 12.6194C14.6975 13.1328 14.3859 13.5993 13.993 13.9923C13.6001 14.3852 13.1337 14.697 12.6203 14.9097C12.1069 15.1224 11.5567 15.2319 11.001 15.232C9.87874 15.2321 8.80238 14.7864 8.00873 13.993C7.21508 13.1995 6.76913 12.1233 6.769 11.001C6.76887 9.87874 7.21456 8.80238 8.00802 8.00873C8.80149 7.21508 9.87774 6.76913 11 6.769ZM2.538 9.307H4.454C4.30824 9.85961 4.23331 10.4285 4.231 11C4.25265 12.7811 4.97539 14.482 6.24257 15.7338C7.50974 16.9857 9.21924 17.6877 11.0005 17.6877C12.7818 17.6877 14.4913 16.9857 15.7584 15.7338C17.0256 14.482 17.7484 12.7811 17.77 11C17.77 10.414 17.685 9.848 17.548 9.307H19.462V18.616C19.4619 18.7272 19.4398 18.8373 19.3971 18.9401C19.3545 19.0428 19.292 19.1361 19.2132 19.2146C19.1345 19.2932 19.041 19.3555 18.9382 19.3979C18.8354 19.4404 18.7252 19.4621 18.614 19.462H3.385C3.27382 19.4621 3.1637 19.4403 3.06094 19.3979C2.95819 19.3554 2.86481 19.2931 2.78614 19.2146C2.70748 19.136 2.64507 19.0427 2.60249 18.94C2.55992 18.8373 2.538 18.7272 2.538 18.616V9.307Z" fill="#333333"/>
</g>
<defs>
<clipPath id="clip0_3_15">
<rect width="22" height="22" fill="white"/>
</clipPath>
</defs>
</svg>
