<svg width="22" height="22" viewBox="0 0 22 22" fill="none" xmlns="http://www.w3.org/2000/svg">
<g clip-path="url(#clip0_3_18)">
<path d="M20.371 0H1.623C0.728 0 0 0.71 0 1.585V20.412C0 21.289 0.728 22 1.623 22H20.371C21.267 22 22.001 21.289 22.001 20.412V1.585C22 0.71 21.267 0 20.371 0ZM6.527 18.746H3.26V8.248H6.527V18.746ZM4.895 6.812C4.39321 6.812 3.91197 6.61266 3.55715 6.25785C3.20234 5.90303 3.003 5.42179 3.003 4.92C3.003 4.41821 3.20234 3.93697 3.55715 3.58215C3.91197 3.22734 4.39321 3.028 4.895 3.028C5.39679 3.028 5.87803 3.22734 6.23285 3.58215C6.58767 3.93697 6.787 4.41821 6.787 4.92C6.787 5.42179 6.58767 5.90303 6.23285 6.25785C5.87803 6.61266 5.39679 6.812 4.895 6.812ZM18.746 18.746H15.486V13.642C15.486 12.424 15.462 10.858 13.79 10.858C12.093 10.858 11.833 12.184 11.833 13.553V18.746H8.574V8.248H11.702V9.682H11.746C12.181 8.856 13.246 7.986 14.834 7.986C18.135 7.986 18.745 10.16 18.745 12.987L18.746 18.746Z" fill="#333333"/>
</g>
<defs>
<clipPath id="clip0_3_18">
<rect width="22" height="22" fill="white"/>
</clipPath>
</defs>
</svg>
