<svg width="50" height="50" viewBox="0 0 50 50" fill="none" xmlns="http://www.w3.org/2000/svg">
<g clip-path="url(#clip0_14_7)">
<path d="M25 50C38.8071 50 50 38.8071 50 25C50 11.1929 38.8071 0 25 0C11.1929 0 0 11.1929 0 25C0 38.8071 11.1929 50 25 50Z" fill="black"/>
<path d="M33.182 31.5449H35V33.3629H15V31.5449H16.818V17.9089C16.818 17.6679 16.9138 17.4367 17.0842 17.2662C17.2547 17.0958 17.4859 17 17.727 17H26.818C27.0591 17 27.2903 17.0958 27.4608 17.2662C27.6312 17.4367 27.727 17.6679 27.727 17.9089V31.5449H31.363V24.2729H29.545V22.455H32.272C32.5131 22.455 32.7443 22.5507 32.9147 22.7212C33.0852 22.8917 33.181 23.1229 33.181 23.364L33.182 31.5449ZM18.636 18.818V31.5449H25.909V18.818H18.636ZM20.454 24.2729H24.09V26.0909H20.455L20.454 24.2729ZM20.454 20.637H24.09V22.455H20.455L20.454 20.637Z" fill="white"/>
</g>
<defs>
<clipPath id="clip0_14_7">
<rect width="50" height="50" fill="white"/>
</clipPath>
</defs>
</svg>
