<svg width="53" height="22" viewBox="0 0 53 22" fill="none" xmlns="http://www.w3.org/2000/svg">
<path d="M19.721 17.682H17.736V16.532C16.983 17.395 16.345 17.831 15.649 17.831C15.039 17.831 14.615 17.544 14.403 17.022C14.274 16.706 14.182 16.213 14.182 15.487V7.127H16.167V15.695C16.214 15.988 16.338 16.095 16.591 16.095C16.971 16.095 17.315 15.765 17.736 15.173V7.126H19.721V17.682ZM12.719 10.575C12.719 9.447 12.492 8.6 12.092 8.067C11.563 7.345 10.733 7.05 9.89699 7.05C8.95099 7.05 8.23099 7.345 7.70299 8.067C7.29599 8.6 7.07799 9.456 7.07799 10.584L7.07599 14.338C7.07599 15.459 7.26999 16.234 7.67699 16.762C8.20499 17.483 9.06199 17.864 9.89799 17.864C10.734 17.864 11.605 17.483 12.134 16.762C12.534 16.235 12.719 15.459 12.719 14.338V10.575ZM10.733 14.547C10.837 15.592 10.513 16.109 9.89699 16.109C9.28099 16.109 8.95699 15.591 9.06099 14.547V10.366C8.95699 9.321 9.28099 8.831 9.89699 8.831C10.513 8.831 10.838 9.32 10.734 10.366L10.733 14.547ZM4.88199 11.934V17.682H2.79099V11.934C2.79099 11.934 0.625986 4.887 0.178986 3.574H2.37299L3.83999 9.078L5.29999 3.573H7.49399L4.88199 11.934ZM40.143 8.805C39.831 8.805 39.474 8.97 39.158 9.282L39.156 15.619C39.472 15.935 39.831 16.096 40.143 16.096C40.688 16.096 40.934 15.696 40.934 14.651V10.158C40.934 9.112 40.688 8.805 40.143 8.805ZM47.059 8.805C46.427 8.805 46.16 9.072 46.16 10.048V11.204L47.936 11.202V10.061C47.936 9.096 47.686 8.805 47.059 8.805Z" fill="black"/>
<path d="M52.225 4.713C52.225 4.713 51.919 2.572 50.984 1.63C49.798 0.393 48.467 0.387 47.858 0.314C43.49 0 36.94 0 36.94 0H36.926C36.926 0 30.376 0 26.009 0.314C25.4 0.387 24.07 0.393 22.884 1.63C21.947 2.573 21.644 4.713 21.644 4.713C21.644 4.713 21.332 7.227 21.332 9.741V12.097C21.332 14.611 21.644 17.124 21.644 17.124C21.644 17.124 21.948 19.265 22.884 20.208C24.071 21.446 25.63 21.405 26.324 21.536C28.82 21.774 36.933 21.848 36.933 21.848C36.933 21.848 43.49 21.838 47.857 21.524C48.466 21.452 49.797 21.446 50.983 20.208C51.919 19.265 52.224 17.124 52.224 17.124C52.224 17.124 52.536 14.61 52.536 12.097V9.741C52.536 7.227 52.225 4.713 52.225 4.713ZM28.186 17.682H26.095V5.664H23.9V3.68L30.484 3.678V5.663H28.185V17.682H28.186ZM35.709 17.682H33.724V16.532C32.971 17.395 32.333 17.831 31.637 17.831C31.028 17.831 30.603 17.544 30.391 17.022C30.262 16.706 30.171 16.213 30.171 15.487V7.231H32.156V15.695C32.202 15.988 32.327 16.095 32.579 16.095C32.959 16.095 33.304 15.765 33.724 15.173V7.231H35.709V17.682ZM42.92 14.547C42.92 15.512 42.837 16.193 42.711 16.637C42.458 17.412 41.907 17.817 41.154 17.817C40.481 17.817 39.792 17.413 39.16 16.629L39.157 17.682H37.276V3.678H39.157L39.155 8.243C39.766 7.491 40.458 7.063 41.154 7.063C41.907 7.063 42.414 7.498 42.666 8.28C42.793 8.7 42.92 9.376 42.92 10.365V14.547ZM49.925 12.77H46.159V14.647C46.152 15.612 46.427 16.096 47.076 16.096C47.542 16.096 47.813 15.844 47.922 15.338C47.94 15.234 47.936 14.783 47.936 14.024H49.921V14.321C49.921 14.93 49.871 15.362 49.854 15.551C49.791 15.971 49.642 16.35 49.412 16.684C48.889 17.442 48.112 17.817 47.124 17.817C46.135 17.817 45.381 17.462 44.834 16.747C44.432 16.226 44.175 15.448 44.175 14.339V10.68C44.175 9.564 44.409 8.701 44.811 8.173C45.359 7.459 46.112 7.081 47.078 7.081C48.027 7.081 48.78 7.459 49.31 8.173C49.706 8.701 49.926 9.518 49.926 10.634L49.925 12.77Z" fill="black"/>
</svg>
