<svg width="22" height="22" viewBox="0 0 22 22" fill="none" xmlns="http://www.w3.org/2000/svg">
<path d="M20.787 4.13942e-07H1.215C0.543 4.13942e-07 0 0.543 0 1.214V20.786C0 21.457 0.543 22 1.215 22H11.752V13.481H8.884V10.16H11.751V7.711C11.751 4.87 13.487 3.322 16.022 3.322C17.236 3.322 18.28 3.412 18.584 3.453V6.423H16.826C15.448 6.423 15.18 7.078 15.18 8.039V10.159H18.468L18.039 13.48H15.18V22H20.786C21.456 22 22 21.457 22 20.786V1.214C22.0003 1.05459 21.9691 0.896685 21.9082 0.749343C21.8474 0.602 21.758 0.468109 21.6454 0.35534C21.5327 0.24257 21.3989 0.153137 21.2516 0.0921619C21.1043 0.0311871 20.9464 -0.000131333 20.787 4.13942e-07Z" fill="#333333"/>
</svg>
