<svg width="20" height="18" viewBox="0 0 20 18" fill="none" xmlns="http://www.w3.org/2000/svg">
<path d="M19.877 2.874C19.1374 3.20127 18.3531 3.41631 17.55 3.512C18.396 3.00578 19.0288 2.2088 19.33 1.27C18.5348 1.74241 17.6646 2.0749 16.757 2.253C16.1467 1.60139 15.3383 1.16946 14.4574 1.02426C13.5765 0.879056 12.6723 1.02871 11.8852 1.44998C11.098 1.87125 10.472 2.54058 10.1042 3.35408C9.73633 4.16758 9.64734 5.07975 9.85099 5.949C8.2397 5.86875 6.66335 5.45029 5.2244 4.72082C3.78546 3.99136 2.51615 2.96723 1.49899 1.715C0.979555 2.60707 0.819985 3.66368 1.05282 4.66935C1.28566 5.67502 1.89336 6.55399 2.75199 7.127C2.10866 7.10579 1.47964 6.93165 0.916986 6.619V6.67C0.917289 7.60575 1.24114 8.51262 1.83364 9.23689C2.42614 9.96116 3.25085 10.4583 4.16799 10.644C3.57138 10.807 2.94531 10.831 2.33799 10.714C2.59627 11.5194 3.1001 12.2238 3.77887 12.7284C4.45765 13.2331 5.27732 13.5127 6.12299 13.528C4.68803 14.6556 2.91498 15.2668 1.08999 15.263C0.762986 15.263 0.440986 15.243 0.122986 15.206C1.97592 16.3966 4.13251 17.0284 6.33499 17.026C13.789 17.026 17.867 10.852 17.867 5.496C17.867 5.321 17.862 5.145 17.854 4.971C18.6481 4.39838 19.3332 3.68817 19.877 2.874Z" fill="#333333"/>
</svg>
